<?xml version="1.0" encoding="utf-8"?>
<!-- Generator: Adobe Illustrator 14.0.0, SVG Export Plug-In . SVG Version: 6.00 Build 43363)  -->
<!DOCTYPE svg PUBLIC "-//W3C//DTD SVG 1.1//EN" "http://www.w3.org/Graphics/SVG/1.1/DTD/svg11.dtd">
<svg version="1.1" id="Layer_1" xmlns="http://www.w3.org/2000/svg" xmlns:xlink="http://www.w3.org/1999/xlink" x="0px" y="0px"
	 width="40px" height="40px" viewBox="0 0 40 40" enable-background="new 0 0 40 40" xml:space="preserve">
<path fill="#FFFFFF" d="M7.051,18.078c0.447,0,0.785,0.156,1.014,0.468l0.636-1.504c0.103-0.223,0.117-0.404,0.043-0.543
	c-0.075-0.14-0.238-0.209-0.49-0.209H8.083l0.344-0.719c0.091-0.011,0.189-0.027,0.292-0.05c0.091-0.022,0.191-0.039,0.301-0.05
	c0.108-0.011,0.22-0.017,0.335-0.017c0.653,0,1.063,0.173,1.229,0.518c0.166,0.346,0.088,0.892-0.232,1.639l-2.201,5.216
	c-0.08,0.223-0.066,0.379,0.043,0.468c0.108,0.09,0.263,0.114,0.464,0.075s0.416-0.142,0.645-0.31
	c0.229-0.167,0.418-0.4,0.567-0.702l0.292,0.469c-0.114,0.268-0.272,0.516-0.473,0.743c-0.201,0.229-0.424,0.427-0.67,0.594
	c-0.247,0.167-0.511,0.302-0.791,0.401c-0.281,0.101-0.559,0.15-0.834,0.15c-0.355,0-0.642-0.069-0.86-0.209
	c-0.218-0.139-0.355-0.354-0.413-0.644c-0.333,0.268-0.671,0.477-1.014,0.627c-0.344,0.15-0.671,0.226-0.98,0.226
	c-0.39,0-0.708-0.086-0.954-0.259c-0.247-0.173-0.421-0.409-0.524-0.711c-0.104-0.301-0.135-0.654-0.095-1.062
	c0.041-0.406,0.164-0.839,0.37-1.296c0.504-1.136,1.121-1.972,1.848-2.507C5.5,18.345,6.26,18.078,7.051,18.078z M6.346,22.592
	c0.035-0.078,0.1-0.23,0.198-0.46c0.097-0.229,0.215-0.498,0.353-0.811c0.137-0.312,0.284-0.654,0.438-1.028
	c0.155-0.374,0.307-0.739,0.456-1.095c-0.126-0.156-0.298-0.234-0.516-0.234c-0.424,0-0.814,0.176-1.169,0.527
	c-0.355,0.351-0.757,0.961-1.204,1.831c-0.161,0.323-0.29,0.627-0.387,0.911c-0.098,0.284-0.152,0.532-0.164,0.744
	c-0.012,0.212,0.026,0.379,0.111,0.502c0.086,0.122,0.227,0.184,0.422,0.184c0.195,0,0.401-0.056,0.619-0.168
	c0.218-0.11,0.441-0.262,0.67-0.451c0.023-0.078,0.049-0.15,0.078-0.217C6.28,22.759,6.312,22.681,6.346,22.592z M14.307,18.078
	c0.447,0,0.785,0.156,1.014,0.468c0.035-0.078,0.061-0.147,0.078-0.208c0.017-0.062,0.037-0.104,0.06-0.126h1.892
	c-0.035,0.101-0.103,0.273-0.207,0.519c-0.103,0.245-0.224,0.526-0.361,0.844c-0.138,0.318-0.281,0.652-0.43,1.003
	c-0.149,0.351-0.29,0.683-0.422,0.995s-0.246,0.582-0.344,0.811s-0.158,0.376-0.18,0.443c-0.092,0.212-0.081,0.362,0.034,0.451
	c0.114,0.089,0.269,0.117,0.464,0.084c0.195-0.034,0.41-0.134,0.645-0.302c0.235-0.167,0.427-0.4,0.576-0.702l0.292,0.469
	c-0.115,0.268-0.272,0.516-0.473,0.743c-0.201,0.229-0.424,0.427-0.67,0.594c-0.247,0.167-0.51,0.302-0.791,0.401
	c-0.281,0.101-0.559,0.15-0.834,0.15c-0.355,0-0.645-0.072-0.868-0.217c-0.224-0.146-0.364-0.362-0.421-0.652
	c-0.333,0.268-0.668,0.479-1.006,0.636c-0.338,0.155-0.662,0.233-0.972,0.233c-0.39,0-0.708-0.086-0.954-0.259
	c-0.247-0.173-0.422-0.409-0.525-0.711c-0.103-0.301-0.134-0.654-0.095-1.062c0.041-0.406,0.164-0.839,0.37-1.296
	c0.493-1.136,1.106-1.972,1.84-2.507S13.516,18.078,14.307,18.078z M15.029,19.198c-0.103-0.156-0.27-0.234-0.499-0.234
	c-0.218,0-0.421,0.042-0.61,0.125c-0.189,0.084-0.378,0.217-0.567,0.401c-0.189,0.184-0.381,0.426-0.576,0.727
	c-0.195,0.301-0.401,0.669-0.619,1.104c-0.172,0.323-0.307,0.627-0.404,0.911c-0.097,0.284-0.152,0.532-0.163,0.744
	c-0.012,0.212,0.026,0.379,0.112,0.502c0.086,0.122,0.226,0.184,0.421,0.184c0.194,0,0.407-0.056,0.636-0.168
	c0.229-0.11,0.458-0.267,0.688-0.468c0.034-0.145,0.086-0.29,0.155-0.435L15.029,19.198z M20.368,23.569
	c-0.201,0.229-0.424,0.427-0.671,0.594s-0.51,0.302-0.791,0.401c-0.281,0.101-0.559,0.15-0.834,0.15
	c-0.275,0-0.513-0.044-0.714-0.134c-0.201-0.089-0.353-0.223-0.456-0.401c-0.103-0.178-0.148-0.401-0.138-0.668
	c0.012-0.268,0.092-0.574,0.241-0.92c0.035-0.089,0.115-0.275,0.241-0.561c0.125-0.284,0.269-0.618,0.43-1.002
	c0.16-0.385,0.332-0.794,0.516-1.229c0.183-0.435,0.355-0.844,0.516-1.229c0.16-0.384,0.301-0.716,0.421-0.995
	c0.12-0.278,0.197-0.457,0.232-0.535c0.103-0.223,0.12-0.404,0.051-0.543c-0.068-0.14-0.235-0.209-0.498-0.209h-0.172l0.361-0.719
	c0.091-0.011,0.189-0.027,0.292-0.05c0.092-0.022,0.189-0.039,0.292-0.05c0.104-0.011,0.218-0.017,0.344-0.017
	c0.653,0,1.06,0.173,1.221,0.518c0.16,0.346,0.08,0.892-0.24,1.639c-0.035,0.089-0.093,0.229-0.173,0.418s-0.175,0.415-0.283,0.677
	c-0.109,0.262-0.23,0.546-0.362,0.853s-0.261,0.61-0.386,0.911c-0.298,0.713-0.625,1.499-0.98,2.357
	c-0.092,0.223-0.08,0.379,0.034,0.468c0.115,0.09,0.27,0.114,0.464,0.075s0.407-0.142,0.637-0.31c0.229-0.167,0.424-0.4,0.584-0.702
	l0.292,0.469C20.727,23.094,20.568,23.342,20.368,23.569z M23.789,23.569c-0.2,0.229-0.424,0.427-0.67,0.594
	c-0.247,0.167-0.511,0.302-0.791,0.401c-0.281,0.101-0.559,0.15-0.834,0.15s-0.513-0.044-0.714-0.134
	c-0.201-0.089-0.353-0.223-0.456-0.401c-0.103-0.178-0.148-0.401-0.138-0.668c0.012-0.268,0.092-0.574,0.241-0.92
	c0.035-0.089,0.115-0.275,0.241-0.561c0.125-0.284,0.269-0.618,0.43-1.002c0.161-0.385,0.332-0.794,0.516-1.229
	c0.184-0.435,0.355-0.844,0.516-1.229c0.16-0.384,0.302-0.716,0.422-0.995c0.12-0.278,0.197-0.457,0.232-0.535
	c0.103-0.223,0.12-0.404,0.051-0.543c-0.068-0.14-0.235-0.209-0.498-0.209h-0.172l0.36-0.719c0.092-0.011,0.189-0.027,0.292-0.05
	c0.093-0.022,0.189-0.039,0.293-0.05s0.218-0.017,0.344-0.017c0.653,0,1.06,0.173,1.221,0.518c0.16,0.346,0.08,0.892-0.24,1.639
	c-0.035,0.089-0.092,0.229-0.172,0.418c-0.081,0.189-0.176,0.415-0.284,0.677c-0.109,0.262-0.229,0.546-0.361,0.853
	s-0.261,0.61-0.387,0.911c-0.298,0.713-0.624,1.499-0.979,2.357c-0.092,0.223-0.081,0.379,0.034,0.468
	c0.114,0.09,0.27,0.114,0.464,0.075c0.195-0.039,0.407-0.142,0.637-0.31c0.229-0.167,0.424-0.4,0.584-0.702l0.293,0.469
	C24.147,23.094,23.989,23.342,23.789,23.569z M28.406,18.078c0.447,0,0.785,0.156,1.015,0.468c0.034-0.078,0.06-0.147,0.077-0.208
	c0.018-0.062,0.037-0.104,0.06-0.126h1.892c-0.034,0.101-0.103,0.273-0.206,0.519s-0.224,0.526-0.361,0.844s-0.28,0.652-0.43,1.003
	c-0.149,0.351-0.289,0.683-0.421,0.995s-0.247,0.582-0.344,0.811c-0.098,0.229-0.158,0.376-0.181,0.443
	c-0.092,0.212-0.08,0.362,0.034,0.451s0.27,0.117,0.464,0.084c0.195-0.034,0.41-0.134,0.646-0.302
	c0.234-0.167,0.427-0.4,0.575-0.702l0.293,0.469c-0.115,0.268-0.272,0.516-0.473,0.743c-0.201,0.229-0.425,0.427-0.671,0.594
	c-0.247,0.167-0.511,0.302-0.791,0.401c-0.281,0.101-0.559,0.15-0.834,0.15c-0.355,0-0.645-0.072-0.868-0.217
	c-0.224-0.146-0.364-0.362-0.422-0.652c-0.332,0.268-0.667,0.479-1.005,0.636c-0.339,0.155-0.662,0.233-0.972,0.233
	c-0.39,0-0.708-0.086-0.955-0.259c-0.246-0.173-0.421-0.409-0.524-0.711c-0.103-0.301-0.135-0.654-0.094-1.062
	c0.04-0.406,0.163-0.839,0.369-1.296c0.493-1.136,1.106-1.972,1.84-2.507S27.615,18.078,28.406,18.078z M29.128,19.198
	c-0.103-0.156-0.27-0.234-0.498-0.234c-0.218,0-0.422,0.042-0.61,0.125c-0.189,0.084-0.379,0.217-0.568,0.401
	c-0.188,0.184-0.381,0.426-0.575,0.727c-0.195,0.301-0.401,0.669-0.619,1.104c-0.172,0.323-0.307,0.627-0.404,0.911
	s-0.151,0.532-0.163,0.744s0.025,0.379,0.111,0.502c0.086,0.122,0.227,0.184,0.422,0.184c0.194,0,0.406-0.056,0.636-0.168
	c0.229-0.11,0.459-0.267,0.688-0.468c0.035-0.145,0.087-0.29,0.155-0.435L29.128,19.198z M34.098,23.611
	c0,0.302-0.112,0.561-0.336,0.777c-0.224,0.218-0.496,0.326-0.816,0.326c-0.321,0-0.593-0.108-0.816-0.326
	c-0.224-0.217-0.336-0.476-0.336-0.777c0-0.312,0.112-0.576,0.336-0.794c0.224-0.217,0.495-0.326,0.816-0.326
	c0.32,0,0.593,0.109,0.816,0.326C33.985,23.035,34.098,23.3,34.098,23.611z M37.347,16.891c-0.229,0.479-0.504,0.948-0.825,1.405
	s-0.645,0.883-0.972,1.279c-0.326,0.396-0.631,0.752-0.911,1.07s-0.496,0.571-0.645,0.761h-0.602
	c0.32-0.635,0.593-1.268,0.816-1.897c0.224-0.63,0.406-1.201,0.551-1.714c0.143-0.512,0.252-0.938,0.326-1.279
	c0.074-0.34,0.129-0.538,0.163-0.593c0.138-0.279,0.355-0.468,0.653-0.569c0.298-0.1,0.596-0.089,0.895,0.034
	c0.286,0.134,0.484,0.345,0.593,0.635C37.499,16.312,37.484,16.601,37.347,16.891z"/>
</svg>
